<svg xmlns="http://www.w3.org/2000/svg" xmlns:cc="http://creativecommons.org/ns#" xmlns:dc="http://purl.org/dc/elements/1.1/" xmlns:rdf="http://www.w3.org/1999/02/22-rdf-syntax-ns#" width="31.177mm" height="13.23mm" version="1.1" viewBox="0 0 31.177 13.23">
 <metadata>
  <rdf:RDF>
   <cc:Work rdf:about="">
    <dc:format>image/svg+xml</dc:format>
    <dc:type rdf:resource="http://purl.org/dc/dcmitype/StillImage"/>
   </cc:Work>
  </rdf:RDF>
 </metadata>
 <g transform="translate(-81.098 -134.72)">
  <g transform="matrix(.26458 0 0 .26458 76.293 127.79)" data-name="Group 10">
   <g transform="translate(79.271,26.222)" fill="#0c2b60" data-name="Group 7">
    <path transform="translate(-67.292,-26.166)" d="m71.7 26.427a4.8 4.8 0 0 1 2.258 0.456 3.252 3.252 0 0 1 1.335 1.306 5.809 5.809 0 0 1 0.643 2.044 19.27 19.27 0 0 1 0.164 2.667 18.946 18.946 0 0 1-0.214 3.051 5.823 5.823 0 0 1-0.738 2.136 3.238 3.238 0 0 1-1.4 1.25 5.253 5.253 0 0 1-2.221 0.41h-4.235v-13.32zm-0.527 11.343a2.316 2.316 0 0 0 1.139-0.243 1.669 1.669 0 0 0 0.68-0.8 4.694 4.694 0 0 0 0.336-1.474q0.084-0.914 0.085-2.276 0-1.138-0.076-2a4.924 4.924 0 0 0-0.307-1.427 1.792 1.792 0 0 0-0.69-0.859 2.273 2.273 0 0 0-1.221-0.289h-1.14v9.368z" data-name="Path 3"/>
    <path transform="translate(-65.291,-26.166)" d="m82.942 28.628h-4.758v3.135h4.478v2.2h-4.478v3.582h4.944v2.2h-7.628v-13.318h7.444z" data-name="Path 4"/>
    <path transform="translate(-63.532,-26.166)" d="m85.4 31.763h0.037l3.4-5.336h2.91l-3.62 5.709 4.03 7.612h-3.027l-2.743-5.467-0.987 1.512v3.956h-2.688v-13.322h2.688z" data-name="Path 5"/>
    <path transform="translate(-61.496,-26.166)" d="m93.754 31.763h0.037l3.4-5.336h2.91l-3.62 5.709 4.03 7.612h-3.025l-2.743-5.467-0.989 1.511v3.956h-2.687v-13.321h2.687z" data-name="Path 6"/>
    <path transform="translate(-59.66,-26.217)" d="m98.738 30.349a6.185 6.185 0 0 1 0.616-2.192 3.446 3.446 0 0 1 1.372-1.427 5.895 5.895 0 0 1 4.814 0 3.443 3.443 0 0 1 1.371 1.427 6.185 6.185 0 0 1 0.616 2.192 27.846 27.846 0 0 1 0 5.588 6.166 6.166 0 0 1-0.616 2.183 3.271 3.271 0 0 1-1.371 1.4 6.213 6.213 0 0 1-4.814 0 3.274 3.274 0 0 1-1.372-1.4 6.166 6.166 0 0 1-0.616-2.183 27.846 27.846 0 0 1 0-5.588m2.612 5.075a6.347 6.347 0 0 0 0.261 1.531 1.705 1.705 0 0 0 0.56 0.858 1.845 1.845 0 0 0 1.922 0 1.705 1.705 0 0 0 0.56-0.858 6.345 6.345 0 0 0 0.261-1.531q0.065-0.94 0.066-2.285t-0.066-2.276a6.459 6.459 0 0 0-0.261-1.53 1.7 1.7 0 0 0-0.56-0.868 1.845 1.845 0 0 0-1.922 0 1.7 1.7 0 0 0-0.56 0.868 6.461 6.461 0 0 0-0.261 1.53q-0.065 0.933-0.065 2.276t0.065 2.285" data-name="Path 7"/>
   </g>
   <g transform="translate(79.271,44.295)" fill="#0c2b60" data-name="Group 8">
    <path transform="translate(-67.292,-40.697)" d="m67.292 40.958h2.687v11.12h4.757v2.2h-7.444z" data-name="Path 8"/>
    <path transform="translate(-65.599,-40.697)" d="m81.682 43.159h-4.758v3.135h4.476v2.2h-4.476v3.582h4.944v2.2h-7.63v-13.318h7.444z" data-name="Path 9"/>
    <path transform="translate(-63.866,-40.748)" d="m87.309 44.2a2.493 2.493 0 0 0-0.271-0.719 1.75 1.75 0 0 0-0.475-0.541 1.148 1.148 0 0 0-0.7-0.214 1.46 1.46 0 0 0-1.4 1.082 10.6 10.6 0 0 0-0.43 3.582q0 1.194 0.075 2.164a8.4 8.4 0 0 0 0.271 1.652 2.38 2.38 0 0 0 0.56 1.045 1.276 1.276 0 0 0 0.943 0.363 1.3 1.3 0 0 0 0.531-0.131 1.762 1.762 0 0 0 0.541-0.392 2.158 2.158 0 0 0 0.42-0.662 2.432 2.432 0 0 0 0.168-0.943v-1.361h-1.773v-1.978h4.348v7.183h-1.978v-1.23h-0.039a2.841 2.841 0 0 1-1.167 1.111 3.764 3.764 0 0 1-1.633 0.326 4.114 4.114 0 0 1-2.005-0.429 2.934 2.934 0 0 1-1.213-1.325 6.765 6.765 0 0 1-0.588-2.21 27.424 27.424 0 0 1-0.149-3.051 17.862 17.862 0 0 1 0.215-2.948 5.912 5.912 0 0 1 0.736-2.117 3.361 3.361 0 0 1 1.381-1.279 4.78 4.78 0 0 1 2.146-0.429 4.056 4.056 0 0 1 3.177 1.09 4.562 4.562 0 0 1 0.97 3.126h-2.577a3.647 3.647 0 0 0-0.085-0.765" data-name="Path 10"/>
    <path transform="translate(-61.916,-40.697)" d="m96.19 40.958 3.526 13.321h-2.8l-0.616-2.817h-3.543l-0.616 2.817h-2.8l3.526-13.321zm-0.354 8.3-1.287-5.989h-0.037l-1.288 5.991z" data-name="Path 11"/>
    <path transform="translate(-59.828,-40.748)" d="m103.53 43.387a1.293 1.293 0 0 0-1.26-0.662 1.254 1.254 0 0 0-0.83 0.271 1.788 1.788 0 0 0-0.514 0.877 7.468 7.468 0 0 0-0.261 1.585q-0.075 0.979-0.075 2.4a23.316 23.316 0 0 0 0.1 2.444 5.429 5.429 0 0 0 0.318 1.447 1.318 1.318 0 0 0 0.541 0.69 1.553 1.553 0 0 0 0.755 0.177 1.794 1.794 0 0 0 0.663-0.121 1.127 1.127 0 0 0 0.531-0.485 3.156 3.156 0 0 0 0.354-1.026 9.368 9.368 0 0 0 0.131-1.745h2.687a12.027 12.027 0 0 1-0.168 2.052 4.625 4.625 0 0 1-0.626 1.7 3.1 3.1 0 0 1-1.286 1.139 4.9 4.9 0 0 1-2.156 0.409 5.069 5.069 0 0 1-2.407-0.485 3.272 3.272 0 0 1-1.371-1.4 6.14 6.14 0 0 1-0.617-2.183 28.093 28.093 0 0 1 0-5.588 6.159 6.159 0 0 1 0.617-2.192 3.446 3.446 0 0 1 1.371-1.428 4.837 4.837 0 0 1 2.407-0.512 4.639 4.639 0 0 1 2.266 0.466 3.166 3.166 0 0 1 1.241 1.185 4.106 4.106 0 0 1 0.514 1.549 12.723 12.723 0 0 1 0.1 1.557h-2.687a4.845 4.845 0 0 0-0.345-2.118" data-name="Path 12"/>
    <path transform="translate(-58.054,-40.697)" d="m109.96 46.107h0.041l1.865-5.15h2.911l-3.452 8.079v5.244h-2.687v-5.243l-3.452-8.079h3.022z" data-name="Path 13"/>
   </g>
   <g transform="translate(79.271,62.41)" fill="#0c2b60" data-name="Group 9">
    <path transform="translate(-67.292,-55.312)" d="m73.254 58.763a2.485 2.485 0 0 0-0.271-0.718 1.736 1.736 0 0 0-0.475-0.541 1.143 1.143 0 0 0-0.7-0.215 1.462 1.462 0 0 0-1.4 1.082 10.636 10.636 0 0 0-0.429 3.582q0 1.194 0.075 2.165a8.278 8.278 0 0 0 0.271 1.651 2.38 2.38 0 0 0 0.56 1.045 1.273 1.273 0 0 0 0.942 0.363 1.323 1.323 0 0 0 0.532-0.129 1.766 1.766 0 0 0 0.541-0.393 2.118 2.118 0 0 0 0.419-0.662 2.427 2.427 0 0 0 0.169-0.943v-1.361h-1.774v-1.978h4.347v7.189h-1.978v-1.237h-0.037a2.831 2.831 0 0 1-1.165 1.111 3.768 3.768 0 0 1-1.633 0.326 4.129 4.129 0 0 1-2.005-0.428 2.936 2.936 0 0 1-1.213-1.326 6.756 6.756 0 0 1-0.588-2.21 27.408 27.408 0 0 1-0.149-3.051 17.739 17.739 0 0 1 0.215-2.948 5.888 5.888 0 0 1 0.736-2.117 3.369 3.369 0 0 1 1.381-1.279 4.781 4.781 0 0 1 2.146-0.428 4.053 4.053 0 0 1 3.17 1.087 4.55 4.55 0 0 1 0.971 3.124h-2.574a3.647 3.647 0 0 0-0.085-0.765" data-name="Path 14"/>
    <path transform="translate(-65.306,-55.261)" d="m80.4 55.522a3.737 3.737 0 0 1 2.612 0.85 3.324 3.324 0 0 1 0.933 2.583 4.031 4.031 0 0 1-0.541 2.193 2.5 2.5 0 0 1-1.68 1.091v0.037a2.427 2.427 0 0 1 1.475 0.654 2.76 2.76 0 0 1 0.578 1.623q0.037 0.373 0.056 0.811c0.011 0.292 0.025 0.618 0.037 0.979q0.037 1.063 0.112 1.624a1.041 1.041 0 0 0 0.485 0.764v0.112h-2.91a1.439 1.439 0 0 1-0.257-0.643 7.215 7.215 0 0 1-0.076-0.755l-0.075-2.557a2.106 2.106 0 0 0-0.391-1.23 1.433 1.433 0 0 0-1.194-0.449h-1.44v5.634h-2.687v-13.321zm-1.157 5.821a2.2 2.2 0 0 0 1.493-0.458 1.958 1.958 0 0 0 0.521-1.539 1.641 1.641 0 0 0-1.865-1.846h-1.268v3.843z" data-name="Path 15"/>
    <path transform="translate(-63.401,-55.312)" d="m83.392 59.445a6.185 6.185 0 0 1 0.616-2.193 3.446 3.446 0 0 1 1.372-1.427 5.895 5.895 0 0 1 4.814 0 3.443 3.443 0 0 1 1.371 1.427 6.184 6.184 0 0 1 0.617 2.193 28.082 28.082 0 0 1 0 5.587 6.151 6.151 0 0 1-0.617 2.183 3.265 3.265 0 0 1-1.371 1.4 6.213 6.213 0 0 1-4.814 0 3.267 3.267 0 0 1-1.372-1.4 6.151 6.151 0 0 1-0.616-2.183 28.079 28.079 0 0 1 0-5.587m2.608 5.075a6.407 6.407 0 0 0 0.261 1.53 1.7 1.7 0 0 0 0.56 0.858 1.838 1.838 0 0 0 1.922 0 1.709 1.709 0 0 0 0.561-0.858 6.353 6.353 0 0 0 0.26-1.53q0.065-0.942 0.066-2.286t-0.066-2.276a6.467 6.467 0 0 0-0.26-1.53 1.71 1.71 0 0 0-0.561-0.867 1.838 1.838 0 0 0-1.922 0 1.7 1.7 0 0 0-0.56 0.867 6.524 6.524 0 0 0-0.261 1.53q-0.065 0.935-0.065 2.276t0.065 2.286" data-name="Path 16"/>
    <path transform="translate(-61.345,-55.261)" d="m94.37 64.813a5.879 5.879 0 0 0 0.066 0.924 2.065 2.065 0 0 0 0.243 0.728 1.3 1.3 0 0 0 0.485 0.485 1.793 1.793 0 0 0 1.557 0 1.33 1.33 0 0 0 0.476-0.485 2.065 2.065 0 0 0 0.241-0.728 5.88 5.88 0 0 0 0.066-0.924v-9.291h2.687v9.291a5.377 5.377 0 0 1-0.354 2.1 3.337 3.337 0 0 1-0.952 1.315 3.226 3.226 0 0 1-1.362 0.653 7.376 7.376 0 0 1-1.586 0.168 8.364 8.364 0 0 1-1.586-0.148 3.224 3.224 0 0 1-1.362-0.607 3.113 3.113 0 0 1-0.952-1.3 5.677 5.677 0 0 1-0.354-2.183v-9.289h2.687z" data-name="Path 17"/>
    <path transform="translate(-59.418,-55.261)" d="m104.29 55.522a3.882 3.882 0 0 1 1.726 0.345 3.161 3.161 0 0 1 1.128 0.905 3.52 3.52 0 0 1 0.616 1.279 5.8 5.8 0 0 1 0.187 1.464 4.775 4.775 0 0 1-0.307 1.791 3.24 3.24 0 0 1-0.858 1.25 3.572 3.572 0 0 1-1.335 0.729 5.851 5.851 0 0 1-1.735 0.241h-1.437v5.318h-2.687v-13.322zm-0.821 6.026a1.774 1.774 0 0 0 1.3-0.485 2.036 2.036 0 0 0 0.494-1.51 2.363 2.363 0 0 0-0.429-1.531 1.765 1.765 0 0 0-1.437-0.522h-1.119v4.049z" data-name="Path 18"/>
   </g>
   <path transform="translate(1.854 .005)" d="m66.2 76.194h-40.435v-3.948h36.49v-42.081h-36.49v-3.948h40.435z" fill="#0c2b60" data-name="Path 19"/>
   <path transform="translate(1.854,2.03)" d="m55.116 63.912h-29.351v-29.388h3.947v25.441h25.4z" fill="#0c2b60" data-name="Path 20"/>
   <path transform="translate(5.038,3.216)" d="m51.932 52.5h-3.947v-9.162h-9.163v-3.948h13.11z" fill="#d70f1d" data-name="Path 21"/>
   <rect transform="translate(18.159,26.198)" width="3.947" height="49.937" fill="#0c2b60" data-name="Rectangle 7"/>
  </g>
 </g>
</svg>