<?xml version="1.0" encoding="UTF-8" standalone="no"?>
<!-- Created with Inkscape (http://www.inkscape.org/) -->

<svg
   version="1.1"
   id="svg1"
   width="50.613335"
   height="62.946667"
   viewBox="0 0 50.613335 62.946667"
   sodipodi:docname="square-group-seeklogo.eps"
   xmlns:inkscape="http://www.inkscape.org/namespaces/inkscape"
   xmlns:sodipodi="http://sodipodi.sourceforge.net/DTD/sodipodi-0.dtd"
   xmlns="http://www.w3.org/2000/svg"
   xmlns:svg="http://www.w3.org/2000/svg">
  <defs
     id="defs1" />
  <sodipodi:namedview
     id="namedview1"
     pagecolor="#ffffff"
     bordercolor="#000000"
     borderopacity="0.25"
     inkscape:showpageshadow="2"
     inkscape:pageopacity="0.0"
     inkscape:pagecheckerboard="0"
     inkscape:deskcolor="#d1d1d1">
    <inkscape:page
       x="0"
       y="0"
       inkscape:label="1"
       id="page1"
       width="50.613335"
       height="62.946667"
       margin="0"
       bleed="0" />
  </sodipodi:namedview>
  <g
     id="g1"
     inkscape:groupmode="layer"
     inkscape:label="1">
    <g
       id="group-R5">
      <path
         id="path2"
         d="m 37.8711,49.6953 c 0.0703,2.1016 -0.8281,3.3594 -2.0508,4.1289 -1.3203,0.7422 -2.9297,1.0938 -4.8086,1.0938 -4.2304,0 -6.3398,-1.25 -6.6719,-3.4532 C 22.7813,42.3867 57.4727,48.0078 53.6523,26.0273 51.293,11.9844 38.8203,5.19531 22.7227,5.19531 7.24219,5.19531 -1.30078,14.5273 0.160156,25.418 H 18.5625 c 0.0781,-2.1602 0.9102,-3.75 2.3594,-4.7735 1.3906,-1.0078 3.3398,-1.5195 5.2109,-1.5195 4.8086,0 8.2188,1.6016 8.707,4.4727 1.5508,9.1367 -33.21871,2.8476 -29.23824,25.9375 2.21875,12.8398 14.00784,19.3007 28.67974,19.3007 16.2812,0 22.2187,-8.539 21.8085,-19.1406 H 37.8711"
         style="fill:#ed1c24;fill-opacity:1;fill-rule:nonzero;stroke:none"
         transform="matrix(0.13333333,0,0,-0.13333333,0,62.946667)" />
      <path
         id="path3"
         d="m 96.4688,36.1914 5.1092,-6.5625 c 0.91,2.1016 1.563,4.3594 2.121,7.7422 1.781,10.3203 -1.629,16.6875 -8.8592,16.6875 -8.7187,0 -12.871,-9.0586 -14.1601,-16.6875 -1.3086,-7.7422 -0.6602,-17.4023 8.5391,-17.4023 1.0625,0 2.0312,0.2617 3.0117,0.6093 l -5.4492,6.7813 z M 108.352,0 101.77,8.32031 c -3.1997,-1.3789 -8.2309,-3.1289 -15.0786,-3.1289 -18.6211,0 -28.6523,12.03909 -25.1601,32.33989 3.1796,18.957 17.7578,31.3085 35.9882,31.3085 19.1995,0 28.4105,-13.9179 25.4025,-31.4687 -1.231,-7.4102 -4.723,-15.5508 -10.5,-21.582 L 117.859,8.80859 108.352,0"
         style="fill:#ed1c24;fill-opacity:1;fill-rule:nonzero;stroke:none"
         transform="matrix(0.13333333,0,0,-0.13333333,0,62.946667)" />
      <path
         id="path4"
         d="m 136.902,67.2422 h 19.211 L 149.926,31.043 c -1.063,-5.9375 -0.742,-11.0782 7.148,-11.0782 6.942,0 9.699,4.5274 10.828,11.0782 l 6.211,36.1992 h 19.211 L 187.453,33.0859 C 184.113,13.6836 174.016,5.19531 154.574,5.19531 c -18.16,0 -27.031,7.14849 -23.539,27.94919 l 5.867,34.0977"
         style="fill:#ed1c24;fill-opacity:1;fill-rule:nonzero;stroke:none"
         transform="matrix(0.13333333,0,0,-0.13333333,0,62.946667)" />
      <path
         id="path5"
         d="M 227.402,49.0234 217.73,27.3633 h 12.133 z M 189.563,6.80078 220.902,67.2422 h 19.539 L 251.102,6.80078 h -19.141 l -0.891,7.98052 h -19.117 l -3.59,-7.98052 h -18.8"
         style="fill:#ed1c24;fill-opacity:1;fill-rule:nonzero;stroke:none"
         transform="matrix(0.13333333,0,0,-0.13333333,0,62.946667)" />
      <path
         id="path6"
         d="m 282.023,41.1406 h 7.571 c 5.937,0 9.359,1.5117 10.09,5.6992 0.75,4.293 -2.204,6.293 -6.661,6.293 h -8.96 z m -2.281,-13.2578 -3.57,-21.08202 h -19.231 l 10.352,60.44142 h 27.66 c 19.551,0 25,-5.4414 23.051,-17.2109 -1.231,-6.961 -5.211,-12.8399 -12.383,-14.7891 5.789,-2.332 9.289,-3.8516 7.172,-16.0117 -1.301,-7.8985 -2.051,-10.59769 0.238,-10.59769 l -0.328,-1.83203 h -19.441 c -0.239,1.32031 -0.09,5.19142 0.808,10.58202 1.391,7.8985 0.473,10.5 -8.476,10.5 h -5.852"
         style="fill:#ed1c24;fill-opacity:1;fill-rule:nonzero;stroke:none"
         transform="matrix(0.13333333,0,0,-0.13333333,0,62.946667)" />
      <path
         id="path7"
         d="m 321.5,6.80469 10.32,60.44141 h 47.789 l -2.441,-14.1094 h -28.57 l -1.457,-8.6211 h 24.168 L 368.93,30.3633 h -24.16 l -1.629,-9.4688 h 29.718 L 370.41,6.80469 H 321.5"
         style="fill:#ed1c24;fill-opacity:1;fill-rule:nonzero;stroke:none"
         transform="matrix(0.13333333,0,0,-0.13333333,0,62.946667)" />
      <path
         id="path8"
         d="M 115.242,207.086 H 1.67969 V 93.5156 H 115.242 V 207.086"
         style="fill:#4dbe54;fill-opacity:1;fill-rule:nonzero;stroke:none"
         transform="matrix(0.13333333,0,0,-0.13333333,0,62.946667)" />
      <path
         id="path9"
         d="M 247.16,207.086 H 133.609 V 93.5156 H 247.16 V 207.086"
         style="fill:#4dbe54;fill-opacity:1;fill-rule:nonzero;stroke:none"
         transform="matrix(0.13333333,0,0,-0.13333333,0,62.946667)" />
      <path
         id="path10"
         d="M 379.063,207.086 H 265.52 V 93.5156 H 379.063 V 207.086"
         style="fill:#4dbe54;fill-opacity:1;fill-rule:nonzero;stroke:none"
         transform="matrix(0.13333333,0,0,-0.13333333,0,62.946667)" />
      <path
         id="path11"
         d="M 115.242,339.594 H 1.67969 V 226.023 H 115.242 v 113.571"
         style="fill:#4dbe54;fill-opacity:1;fill-rule:nonzero;stroke:none"
         transform="matrix(0.13333333,0,0,-0.13333333,0,62.946667)" />
      <path
         id="path12"
         d="M 247.16,339.594 H 133.609 V 226.023 H 247.16 v 113.571"
         style="fill:#4dbe54;fill-opacity:1;fill-rule:nonzero;stroke:none"
         transform="matrix(0.13333333,0,0,-0.13333333,0,62.946667)" />
      <path
         id="path13"
         d="M 379.063,339.594 H 265.52 V 226.023 h 113.543 v 113.571"
         style="fill:#4dbe54;fill-opacity:1;fill-rule:nonzero;stroke:none"
         transform="matrix(0.13333333,0,0,-0.13333333,0,62.946667)" />
      <path
         id="path14"
         d="M 115.242,472.105 H 1.67969 V 358.555 H 115.242 v 113.55"
         style="fill:#4dbe54;fill-opacity:1;fill-rule:nonzero;stroke:none"
         transform="matrix(0.13333333,0,0,-0.13333333,0,62.946667)" />
      <path
         id="path15"
         d="M 247.16,472.105 H 133.609 V 358.555 H 247.16 v 113.55"
         style="fill:#4dbe54;fill-opacity:1;fill-rule:nonzero;stroke:none"
         transform="matrix(0.13333333,0,0,-0.13333333,0,62.946667)" />
      <path
         id="path16"
         d="M 379.063,472.105 H 265.52 v -113.55 h 113.543 v 113.55"
         style="fill:#4dbe54;fill-opacity:1;fill-rule:nonzero;stroke:none"
         transform="matrix(0.13333333,0,0,-0.13333333,0,62.946667)" />
    </g>
  </g>
</svg>
