<svg version="1.1" id="Livello_1" xmlns="http://www.w3.org/2000/svg" xmlns:xlink="http://www.w3.org/1999/xlink" x="0px" y="0px" viewBox="0 0 240 22" style="enable-background:new 0 0 240 22;" xml:space="preserve">

<style type="text/css">

 .st0{fill:#1E1E1C;}

</style>

<g>

 <g>

  <path class="st0" d="M12.6,0.3L0,21.7h13.4l2-3.5h12.4l2,3.5h13.4L30.9,0.3H12.6z M17.8,13.4l3.7-8.3l4,8.3H17.8z"></path>

 </g>

 <g>

  <polygon class="st0" points="61.1,0.3 48.5,0.3 48.5,21.7 79.9,21.7 79.9,16.4 61.1,16.4   "></polygon>

 </g>

 <g>

  <polygon class="st0" points="166.5,5.6 177.4,5.6 177.4,21.7 190,21.7 190,5.6 200.9,5.6 200.9,0.3 166.5,0.3   "></polygon>

 </g>

 <g>

  <polygon class="st0" points="205.6,0.3 205.6,5.6 216.5,5.6 216.5,21.7 229.1,21.7 229.1,5.6 240,5.6 240,0.3   "></polygon>

 </g>

 <g>

  <path class="st0" d="M120.8,9V8.1c0-3-1.3-5-3.8-6.3c-2.6-1.3-6.9-1.8-12.8-1.8h-4.1c-6.4,0-10.7,0.5-13.3,1.8

   c-2.6,1.5-3.8,3.8-3.8,7.1l0,0v4.3v0c0,3.3,1.3,5.5,3.8,7c2.6,1.3,6.9,1.8,13.3,1.8h4.1c5.9,0,10.2-0.5,12.8-1.8

   c2.6-1.2,3.8-3.3,3.8-6.3v-0.6h-13.1V14c0,0.5-0.1,0.8-0.4,1.2c-0.8,1.1-2.5,1.2-3.7,1.2c-0.5,0-1,0-1.6,0c-1,0-2.1,0-3.1-0.1

   c-0.9-0.1-1.8-0.5-2.2-1.2c-0.2-0.3-0.3-0.7-0.4-1.1l0,0c-0.1-0.3-0.1-0.6-0.1-0.9v0c0-0.1,0-0.3,0-0.3V9.4l0,0

   c0-0.3,0-0.7,0.1-1.1c0.1-0.5,0.2-0.9,0.5-1.3c0.5-0.8,1.4-1.1,2.2-1.2c1-0.2,2.1-0.1,3.1-0.1c0.5,0,1,0,1.6,0

   c1.2,0,2.9,0.1,3.7,1.2c0.3,0.4,0.4,1,0.4,1.5V9H120.8z"></path>

 </g>

 <g>

  <path class="st0" d="M159.4,1.8c-2.6-1.3-6.9-1.8-12.8-1.8h-0.5h-3.6H142c-5.9,0-10.2,0.5-12.8,1.8c-2.6,1.3-3.8,3.3-3.8,6.3v0.8

   l0,0v4.3v0v0.7c0,3,1.3,5.1,3.8,6.3c2.6,1.3,6.9,1.8,12.8,1.8h0.5h3.6h0.5c5.9,0,10.3-0.5,12.8-1.8c2.6-1.2,3.8-3.3,3.8-6.3v-0.7

   v0V8.9l0,0V8.1C163.3,5.1,162,3.1,159.4,1.8z M140,16.3c-0.9-0.1-1.8-0.5-2.2-1.2c-0.2-0.3-0.3-0.7-0.4-1.1c0,0,0,0,0,0

   c-0.1-0.3-0.1-0.6-0.1-0.9v0c0-0.1,0-0.3,0-0.3V9.4l0,0c0-0.3,0-0.7,0.1-1.1c0.1-0.5,0.2-0.9,0.5-1.3c0.5-0.8,1.3-1.1,2.2-1.2

   c0.9-0.1,3.3-0.1,4.1-0.1c0.1,0,0.1,0,0.2,0c0.1,0,0.1,0,0.2,0c0.9,0,3.3,0,4.1,0.1c0.9,0.1,1.8,0.5,2.2,1.2

   c0.2,0.4,0.4,0.9,0.5,1.3c0.1,0.4,0.1,0.7,0.1,1.1l0,0v3.3c0,0,0,0.2,0,0.3v0c0,0.3-0.1,0.6-0.1,0.9c0,0,0,0,0,0

   c-0.1,0.4-0.2,0.8-0.4,1.1c-0.5,0.8-1.4,1.1-2.2,1.2c-0.9,0.1-3.2,0.1-4.1,0.1c-0.1,0-0.1,0-0.2,0c-0.1,0-0.1,0-0.2,0

   C143.2,16.4,140.9,16.4,140,16.3z"></path>

 </g>

</g>

</svg>