<svg xmlns="http://www.w3.org/2000/svg" width="1021" height="210.92" viewBox="0 0 1021 210.92">
  <path id="logo" d="M953.211,103.618,1019.886,0H973.407L930.423,68.677l-43-68.591H840.937L907.6,103.7,839.1,210.92h46.787l44.45-72.292L974.77,210.92h46.8ZM827.483,172.21H722.806V124.7H827.483V86.148H722.806V38.556H827.483V.086H685.44V210.834H827.483ZM669.013.086H505.248V38.642h63.217V210.834H605.9V38.556h63.167Zm-180.126,0h-37.4V210.834h37.432ZM437.419,105.511a107.161,107.161,0,0,0-30-74.51A100.965,100.965,0,0,0,335.082.086H255.539V210.834h79.543a100.964,100.964,0,0,0,72.329-30.909,107.158,107.158,0,0,0,30.008-74.5ZM400,105.425a68.46,68.46,0,0,1-4.926,25.588A66.87,66.87,0,0,1,381,152.7a64.682,64.682,0,0,1-21.072,14.47,63.146,63.146,0,0,1-24.848,5.041H292.971V38.556h42.111A63.141,63.141,0,0,1,359.95,43.6,64.689,64.689,0,0,1,381.033,58.1,66.879,66.879,0,0,1,395.1,79.812,68.457,68.457,0,0,1,400,105.425ZM236.84.086H199.407V146.167L94.146.086H56.714V210.834H94.146V64.753L199.424,210.834h37.432ZM37.981.086H.565V210.834H38Z" transform="translate(-0.565)"/>
</svg>
