<svg width="834" height="124" viewBox="0 0 834 124" fill="none" xmlns="http://www.w3.org/2000/svg">
<path d="M755.273 72.1639L763.23 48.7869C767.632 35.7432 769.495 29.9836 770.849 25.071C772.373 29.9836 773.897 35.4044 778.298 48.6175L786.087 72.1639H755.273ZM229.409 121.29H257.683V75.3825H275.63L301.195 121.29H335.395L304.581 72.8415C321.342 67.929 330.823 56.071 330.823 38.1147C330.823 17.2787 315.924 2.71039 289.174 2.71039H229.409V121.29ZM283.756 52.6831H257.683V25.4098H283.756C293.745 25.4098 301.364 28.9672 301.364 39.3006C301.364 49.4645 293.745 52.6831 283.756 52.6831ZM120.376 121.29H210.955V98.4207H148.65V71.9945H195.209V49.1257H148.65V25.5792H210.955V2.71039H120.376V121.29ZM396.514 124C431.73 124 448.152 107.23 448.152 86.224C448.152 64.2022 431.222 52.6831 405.826 49.1257L391.435 47.0929C381.784 45.7377 376.367 41.6721 376.367 34.8962C376.367 28.2896 381.784 22.1912 395.16 22.1912C409.381 22.1912 416.831 29.8142 420.048 40.3169L447.306 31.847C442.565 14.0601 426.82 0 395.498 0C364.346 0 346.738 16.9399 346.738 36.4208C346.738 58.612 361.298 69.2841 385.509 72.6721L400.408 74.7049C413.614 76.5683 418.524 81.1421 418.524 87.918C418.524 95.8798 411.921 101.809 396.683 101.809C379.922 101.809 370.78 90.2896 368.579 79.1093L340.474 88.2568C344.876 108.585 362.484 124 396.514 124ZM596.295 121.29H624.569V91.6448L643.192 71.1476L671.128 121.29H704.82L662.663 49.8033L705.666 2.71039H667.911L624.569 52.3443V2.71039H596.295V121.29ZM466.776 121.29H495.389V72.3333H542.456V121.29H571.068V2.71039H542.456V48.7869H495.389V2.71039H466.776V121.29ZM707.867 121.29H738.342L747.316 95.2022H793.875L802.509 121.29H834L790.488 2.71039H751.548L707.867 121.29ZM53.162 49.6339L28.2741 49.4645V25.2405H53.162C63.659 25.2405 69.9233 28.459 69.9233 37.2678C69.9233 45.9071 63.4896 49.6339 53.162 49.6339ZM53.5006 98.7595H28.2741V70.9781L53.5006 70.8088C64.6748 70.8088 72.8015 74.8743 72.8015 84.8689C72.8015 94.8634 64.6748 98.7595 53.5006 98.7595ZM0 121.29H57.9026C83.2984 121.29 101.583 108.924 101.583 88.4262C101.583 73.6885 91.4251 62.1694 73.9866 59.2896C89.5627 55.0546 97.5201 45.3989 97.5201 31.3388C97.5201 14.2295 83.8063 2.71039 57.7333 2.71039H0V121.29Z" fill="#020203"/>
</svg>
