<svg style="margin-left:40px;" fill="none" height="65" viewBox="0 0 50 65" width="50" xmlns="http://www.w3.org/2000/svg">
<path d="m39.9139.494463c-1.7703-.241182-3.5638-.258035-5.3383-.050162-2.9934.351132-3.0932.652099-3.2928 1.103559l-.2993.75242.2494.15049v13.64393c-3.8416.1004-8.3816.1004-12.8219.1505v-13.49346c.0001-.13608-.0272-.27077-.0805-.39587-.0532-.12511-.1312-.23802-.2292-.33187-.098-.09384-.214-.16666-.3409-.21402-.1268-.04737-.262-.06828-.3971-.06148-.2647 0-.5185.1057-.7056.29384-.1871.18815-.2923.44332-.2923.7094v13.49346c-8.08227 0-15.21666-.1003-15.31644-.1003h-.049895c-.264638 0-.518436.1057-.705563.2938-.187127.1882-.29225385.4433-.29225385.7094-.00676717.1359.01403505.2718.06114125.3994.0471066.1275.1195316.2441.2128706.3427.093339.0985.20564.1769.330071.2304.124432.0536.258393.0811.393734.0809h15.366335v43.6406c.0037.1395.0377.2765.0998.4013-1.7706.0069-3.5389-.1273-5.2884-.4013-.2704-.0286-.5413.0496-.7554.2181-.2142.1685-.3547.414-.3921.6848-.0212.132-.016.2668.0154.3967s.0882.2521.1672.3596.1786.198.2929.2663c.1143.0682.241.1128.3727.1312 1.9696.2486 3.9519.3826 5.937.4012 5.1387 0 9.0801-1.1537 11.8241-3.6116s4.5899-6.9725 4.5899-13.042v-29.5954l4.2408-.1505c5.8372-.4012 12.2731-3.3106 12.5226-8.72808.2494-5.41745-5.2885-7.87537-10.078-8.677957zm-8.681 47.202037c0 5.5178-1.2473 9.1796-3.9414 11.5372s-5.0888 2.8091-8.9803 3.0599c.056-.127.0898-.2628.0998-.4013v-43.6406c4.3904 0 8.9803-.0502 12.8219-.1505zm6.0867-31.8526-4.0911.2007v-13.34303c2.0868-.41649 4.2275-.48428 6.3362-.20064 5.2884.85275 8.5812 3.46115 8.4315 6.57117-.1496 3.11-3.5422 6.3204-10.6766 6.7718z" fill="#fff">
</path>
</svg>