<?xml version="1.0" encoding="utf-8"?>
<!-- Generator: Adobe Illustrator 25.2.3, SVG Export Plug-In . SVG Version: 6.00 Build 0)  -->
<svg version="1.1" id="Capa_1" xmlns="http://www.w3.org/2000/svg" xmlns:xlink="http://www.w3.org/1999/xlink" x="0px" y="0px"
	 viewBox="0 0 1020 239.01" style="enable-background:new 0 0 1020 239.01;" xml:space="preserve">
<style type="text/css">
	.st0{clip-path:url(#SVGID_2_);}
	.st1{clip-path:url(#SVGID_4_);}
	.st2{clip-path:url(#SVGID_6_);}
	.st3{clip-path:url(#SVGID_8_);}
	.st4{clip-path:url(#SVGID_10_);}
	.st5{clip-path:url(#SVGID_12_);}
	.st6{clip-path:url(#SVGID_14_);fill:#13110C;}
	.st7{fill:#020203;}
	.st8{fill-rule:evenodd;clip-rule:evenodd;fill:#020203;}
	.st9{clip-path:url(#SVGID_16_);}
</style>
<g>
	<g>
		<defs>
			<rect id="SVGID_1_" x="-269.98" y="587.15" width="1324.94" height="937.84"/>
		</defs>
		<clipPath id="SVGID_2_">
			<use xlink:href="#SVGID_1_"  style="overflow:visible;"/>
		</clipPath>
		<path class="st0" d="M38.66,1107.84c-0.2-3.37-0.4-6.75-0.59-10.12c-0.12-2.56-0.25-5.11-0.37-7.67
			c-1.59-26.1-3.18-46.77-4.76-72.87c-1.49-15.75-2.82-22.11-5.03-24.75c-2.23-2.9-5.52-3.22-13.25-2.76
			c-2.33,0.17-4.59,0.31-6.18,1.56c-3,2.22-6.58,14.35-8.51,19.31c-6.13,16.99-12.16,34.04-18.29,51.03
			c-2.57,6.6-4.65,13.36-7.3,19.8c-1.21,2.95-2.4,6.5-5.88,7.15c-3.04,0.56-4.38-2.16-5.14-4.02c-1.33-5.99-2.43-12.41-3.8-19.65
			c-2.76-16.6-5.51-33.2-8.26-49.8c-0.97-5.85-2.76-17.02-5.14-19.06c-1.94-2.21-10.78-3.13-15.41-1.71
			c-6.68,2.05-6.87,13.73-9.16,22.18c-4.37,21.78-18.14,89.07-19.58,95.35c-0.65,2.99-0.15,6.34,1.56,7.67
			c2.16,1.66,6.08,1.33,8.04-0.22c2.79-2.13,3.67-9.54,4.74-14.77c3.58-18.25,7.56-42.21,10.65-60.2c1.4-6.34,1.92-15.17,7.09-14.8
			c5.23,0.26,5.44,9.33,7.67,20.17c0.37,2.36,4.82,25.21,7.22,37.82c1.47,7.33,2.36,13.76,4.88,18.99c2.46,4.76,8.78,8.3,15.22,5.65
			c7.07-2.91,9.21-12.42,12.06-19.58c6.72-17.47,13.45-34.94,20.17-52.41c2.28-6.05,4.56-12.11,6.85-18.16
			c0.83-1.99,2.14-4.91,5.29-4.84c5.82-0.51,6.39,11.47,7.41,26.54c0.79,22.4,1.59,39.37,2.38,61.78
			c0.4,10.15-0.87,19.52,8.34,19.65c1.04,0.02,1.87-0.04,2.68-0.3C39.74,1123.09,39.11,1115.67,38.66,1107.84 M277.05,1029.28
			c-2.96,0.42-4.44,1.77-5.32,4.69c-1.18,4.24,2.74,8.9,7.11,8.13C286.64,1040.72,286.33,1028.86,277.05,1029.28z M242.74,1102.08
			c-0.87,1.91-3.07,2.92-5.43,3.35c-4.84,0.88-11.94-2.58-9.9-7.59c1.35-3.31,6.3-5.28,8.04-5.36c1.3-0.26,2.13-0.02,2.9,0.3
			C240.95,1093.83,244.51,1098.21,242.74,1102.08z M187.28,1106.47c-4.89,1.37-12.77-1.51-11.46-6.62c1-3.89,6.15-6.21,8.34-6.25
			C191.08,1093.63,194.49,1104.45,187.28,1106.47z M485.56,1087.79c3.91-12.75-4.73-22.72-13.18-26.06
			c-6.34-2.51-17.12-2.67-23.45-0.07c-1.25,0.51-5.56,2.42-4.54,4.32c0.49,0.98,2.43,0.71,3.57,0.45c3.14-0.73,7.43-1.68,11.39-0.97
			c9.25,1.67,17.45,8.17,13.85,19.95c-0.54,1.76-1.37,3.5-2.31,4.91c-3.78,5.69-15.6,12.41-26.06,9.31
			c-6.3-1.87-11.19-5.96-13.1-12.21c-1.41-4.63-1.35-12.31-0.52-17.64c0.63-3.24-0.32-5.64-2.83-5.06
			c-3.32,0.76-4.94,10.06-6.25,13.4c-3.32,8.44-8.15,17.4-18.16,19.06c-4.59,0.76-6.93-3.83-8.11-6.7
			c-2.68-6.51-3.54-14.73-5.28-22.18c-0.9-3.87-1.22-8.03-5.14-8.86c-3.09-0.65-5.46,1.42-6.7,2.98
			c-3.55,4.48-5.58,10.56-9.01,15.19c-1.3,1.76-3.58,4.54-7.15,3.87c-6.2-1.17-7.37-9.83-9.45-15.19c-0.87-2.23-2.33-6.98-5.8-6.33
			c-6.1,1.15-8.13,13.6-10.79,18.83c-1.17,2.29-3.55,5.96-7.52,4.32c-7.15-2.96-3.05-20.82-10.94-22.7c-4.77-1.14-7.7,4.75-9.3,7.97
			c-3,6.33-6.14,13.82-10.12,19.8c-1.72,2.58-3.84,5.46-7.44,6.11c-4.25,0.75-5.99-3.37-7.07-5.96c-2.27-5.46-3.17-12.01-4.39-18.61
			c-0.75-4.04-0.43-7.95-3.35-9.75c-4.24-2.62-7.4,2.23-9.68,4.02c-4.9,3.85-10.3,6.86-15.86,10.12c-1.61,0.94-4.78,3.24-7.52,2.76
			c-3.17-0.56-4.89-2.95-7-4.62c-3.99-3.16-7.67-6.62-11.32-10.12c-2.05-1.97-4.57-5.83-7.89-5.66c-0.97,0.14-1.51,0.34-2.16,0.74
			c-2.5,1.54-3.57,5.11-5.14,7.59c-2.47,3.91-10.3,12.36-15.33,13.25c-3.31,0.59-5.89-2.84-7.37-4.32
			c-4.92-4.93-9.13-9.67-15.71-13.03c-2.39-1.22-7.21-3.38-10.42-1.41c-2.58,1.58-2.59,9.05-3.72,12.28
			c-3.14,8.97-8.1,18.75-14.81,24.12c-2.44,1.95-6,5.15-10.94,3.94c-8.49-2.08-10.35-12.37-12.43-21.59
			c-0.97-4.54-1.34-12.27-4.91-13.1c-2.93-0.68-3.51,2.3-3.87,4.39c-0.42,2.44-0.28,4.42-0.22,8.04c-0.05,1.51-0.1,3.03-0.15,4.54
			c-0.23,3.75-0.62,5.75-1.64,8.11c-3.02,7.01-13.69,14.52-24.98,12.8c-2.57-0.39-4.53-0.76-6.58-1.56
			c-6.24-2.44-9.89-7.2-11.09-14.74c-0.38-2.4,0.26-4.87,0.82-6.48c2.81-8.04,10.82-11.23,19.43-11.46
			c3.23-0.51,12.9,0.94,13.99-1.27c0.82-2.02-2.93-3.65-4.09-4.24c-4.89-2.48-13.47-4.12-20.55-2.46
			c-9.65,2.27-17.45,7.81-21.07,16.08c-4.63,10.59,1.92,23.27,8.04,28.14c7.68,6.11,20.24,9.42,33.05,5.58
			c6.41-1.92,11.24-5.45,18.09-6.62c1.75-0.3,3.64,0.16,4.84,0.52c6.28,1.9,12.15,9.48,20.77,6.85c2.79-0.85,5.29-2.26,7.44-3.8
			c5.66-4.02,10.37-9.83,13.32-16.53c1.85-4.19,3.36-9.47,5.73-13.25c1.41-2.24,4.48-3.67,7.52-1.94c1.27,0.73,2.46,1.63,3.5,2.61
			c0.97,0.92,2.09,1.84,2.68,3.13c0.77,1.68,0.32,3.59-0.59,4.76c-0.99,1.27-2.71,2.09-4.02,3.05c-2.44,1.79-4.88,3.99-6.7,6.4
			c-4.22,5.61-3.45,10.97,2.31,14.37c8.95,5.29,30.35,6.23,33.05-5.06c1-4.19-1.02-8.39-2.23-11.17c-0.61-1.39-1.96-3.33-1.34-5.58
			c0.65-2.38,2.87-3.59,4.62-4.91c3.7-3.08,7.39-6.15,11.09-9.23c1.64-1.28,3.73-1.53,5.73-0.74c1.67,0.66,2.93,1.81,4.24,2.83
			c1.5,1.17,5.26,3.87,4.62,6.92c-0.43,2.03-2.2,3.06-3.65,4.09c-3.93,2.81-14.61,11.43-8.71,18.16c1.08,1.23,2.57,2.28,4.02,3.13
			c2.67,1.57,5.97,2.59,9.38,3.35c10.4,2.32,21.98-0.4,24.04-8.56c2.01-7.93-8.1-14.05-0.37-19.13c1.34-0.69,2.68-1.39,4.02-2.08
			c1.71-0.76,3.93-2.26,6.77-1.71c4.98,0.95,5.4,6.47,7.07,10.72c2.62,6.64,7.07,18.02,13.85,20.1c3.53,1.09,6.49-1.05,8.34-2.46
			c5.35-4.08,8.97-10.34,12.95-15.78c1.35-1.85,4.2-6.31,7.74-5.66c5.87,1.07,6.37,12.88,8.11,18.46c0.73,2.32,1.57,5.03,3.95,5.66
			c3.29,0.87,5.57-4.04,6.48-6.1c2.61-5.94,6.01-19.23,12.14-20.92c2.79-0.77,4.78,0.99,5.8,2.53c3.18,4.76,2.27,14.11,4.32,19.88
			c0.77,2.16,2.42,5.55,5.88,4.84c3.92-0.81,4.88-6.34,6.03-9.97c1.97-6.26,4.09-13.82,10.42-15.71c4.63-1.38,6.34,2.9,7.44,5.73
			c2.7,6.93,3.86,16.7,10.65,19.5c3.36,1.39,7.73,0.14,10.2-1.12c5.96-3.04,9.21-8.54,16.9-9.83c2.17-0.36,4.15,0.61,5.44,1.27
			c3.73,1.91,6.67,4.67,10.27,6.77c10.15,5.92,23.96,3.21,32.23-2.31C477.83,1101.75,483.15,1095.65,485.56,1087.79z
			 M663.21,1069.47c1.04-4.1,1.97-11.7,1.68-17.67c-0.4-5.83-1.07-10.44-1.91-13.74c-1.58-6.29-3.55-12.14-6.48-17.12
			c-12.29-20.91-33.55-33.19-67.82-32.75c-2.05,0.04-2.88,0.07-4.99,0.3c-3.59,0.39-6.15,0.79-9.23,1.19
			c-10.34,1.83-22.01,3.85-31.49,7.52c-3.23,1.25-6.45,2.23-9.3,3.8c-0.93,0.51-2.69,1.43-2.38,3.05c0.5,2.67,4.74,1.49,6.77,0.97
			c5.78-1.47,13.92-4.54,14.22,3.13c0.5,13.52,0.99,27.05,1.49,40.57c0.1,4.04,0.2,8.09,0.3,12.14c0.1,5.31,0.2,10.62,0.3,15.93
			c0,1.59,0,3.18,0,4.76c0.1,6.22-0.35,15.05,4.17,16.97c2.55,1.08,4.07-1.23,4.76-2.83c1.59-3.69,1.92-6.96,2.32-13.15
			c0.05-1.41,0.08-2.93,0.13-4.34c0.1-4.59,0.2-9.18,0.3-13.77c0.15-9.5,0.3-19.01,0.45-28.51c0.05-4.76,0.1-9.53,0.15-14.29
			c0-1.24,0-2.48,0-3.72c0.03-2.9-0.02-5.84,0-8.75c0-1.92-0.09-3.96,0.29-5.62c0.37-1.59,1.16-2.83,2.38-3.57
			c2.93-1.78,15.08-2.42,21.11-1.81c4.36,0.51,7.52,1.11,11.12,2.03c13,3.31,24.12,9.41,31.34,18.54c3.96,5,7.38,10.69,9.53,17.49
			c1.21,3.85,2.11,7.14,2.55,11.26c1.23,10.75-0.61,22.95-3.22,29.68c-8.31,21.4-24.21,31.45-48.61,36.77
			c-4.29,0.95-8.89,1.21-11.98,1.41c-1.76,0.05-3.52,0.1-5.29,0.15c-1.89,0-3.77,0-5.66,0c-2.28-0.1-4.33-0.08-6.85-0.3
			c-5.41-0.4-14.2-1.54-19.43-2.32c-2.11-0.28-5.72-1.12-6.7-0.44c-0.14,0.12-0.29,0.29-0.22,0.6c0.2,1.19,3.59,2.31,5.44,3.03
			c5.12,2,10.66,3.03,16.59,4.34c30.48,6.26,61.32-2.31,78.53-14.44C649.87,1097.31,658.94,1086.18,663.21,1069.47z M846.64,1029.28
			c-2.96,0.42-4.44,1.77-5.31,4.69c-1.18,4.24,2.74,8.9,7.11,8.13C856.23,1040.72,855.92,1028.86,846.64,1029.28z M799.14,1052.72
			c-0.03,2.8,0.02,5.59,0,8.39c0,2.12,0,3.72-0.02,5.98c-0.09,4.88-0.24,11.79-1.47,16.74c-1.19,4.82-3.39,8.31-6.03,11.61
			c-2.08,2.6-5.8,6.08-10.87,4.84c-13.44-3.29-11.69-20.93-11.69-37.52c0-4.62-0.29-15.23,1.57-17.72
			c2.51-3.35,13.87-2.96,18.4-3.29c1.22-0.08,2.72,0.01,3.93-0.06C800.01,1041.67,799.14,1046.18,799.14,1052.72z M883.03,1103.86
			c-0.03-0.14-0.08-0.3-0.3-0.45c-1.39-1.08-6.75,1.29-9.31,1.71c-8.57,1.42-14.74-5.03-17.05-10.27
			c-1.64-3.73-1.98-8.58-2.87-14.33c-0.33-2.3-0.49-5.76-0.74-8.9c-0.3-3.94-0.08-10.31-4.54-11.24
			c-6.79-1.19-5.74,10.24-6.48,17.27c-0.99,10.12-4.41,18.74-13.14,22.19c-4.54,1.8-9.6,2.01-13.18-0.82
			c-6.25-4.94-5.96-14.59-5.95-25.61c-0.05-5.09-0.1-10.17-0.15-15.26c0-4.3-0.95-12.83,0.82-15.56c2.31-3.55,9.94-1.48,14-3.28
			c1.18-0.52,2.76-1.59,2.31-3.65c-1.26-5.76-11.67-1.57-15.63-4.62c-4.83-3.71,1.42-18.54-5.14-21.21
			c-2.11-0.86-4.12,0.42-4.99,1.56c-2.06,2.73-1.49,8.56-1.49,13.32c0,1.9,0.04,3.72-0.52,5.06c-0.43,1.04-1.41,1.95-2.46,2.38
			c-1.69,0.7-3.56,0.57-5.96,0.59c-3.42,0.1-6.85,0.2-10.27,0.3c-2.18,0-4.69,0.34-6.62-0.15c-8.59-2.19,1.41-23.26-9.23-23.3
			c-2.33,0.31-3.14,1.3-3.87,3.35c-1.71,4.83,0.75,12.96-1.19,17.64c-1.99,4.79-10.55,1.4-13.7,6.11c-0.42,0.63-0.98,1.67-0.75,2.9
			c1.3,6.79,11.2,2.33,13.92,6.7c1.72,2.75,1.13,10.87,1.02,15.22c-0.34,13.65-0.47,23.03-5.56,31.38c-1.1,1.8-2.26,3.7-3.87,4.99
			c-1.33,1.07-2.78,2.14-4.47,2.83c-2.02,0.82-5.16,1.08-7.37,0.3c-8.22-2.89-8.38-17.4-8.89-27.96
			c-0.31-5.43,0.78-11.84-4.43-12.69c-5.91-0.96-6.43,8.7-7.44,13.32c-2.27,10.31-8.31,25.47-18.65,27.62
			c-6.37,1.33-10.02-3.22-11.16-7.79c-0.56-2.27-0.64-4.57-0.74-7.85c0.22-4.72,1-10.77,1.22-14.51c0.53-7.81-1.02-11.84-5.73-10.94
			c-4.06,0.78-4.33,5.29-5.35,9.98c-2.61,13.02-1.62,32.9,6.21,39.15c1.56,1.25,3.29,2.4,5.36,3.13c8.86,3.13,18.02-1.99,22.97-5.73
			c2.45-1.85,5.84-4.84,10.5-3.65c6.62,1.69,8.73,8.22,15.93,9.68c3.72,0.76,6.84-0.91,9.01-2.23c3.97-2.42,7.01-5.33,12.51-6.25
			c2.97-0.5,5.56,0.93,7.3,1.86c4.19,2.26,7.53,5.38,12.95,6.33c3.04,0.53,5.68-0.79,7.37-1.79c4.03-2.37,7.15-5.78,12.51-6.7
			c2.77-0.47,5.1,0.86,6.63,1.79c3.73,2.26,6.4,5.49,11.24,6.63c8.69,2.04,17.28-5.75,22.93-8.19c2.47-1.07,5.88-1.1,8.11,0.22
			c2.24,1.32,4.01,3.22,6.1,4.69c3.83,2.7,10.85,4.68,17.35,3.05c1.98-0.5,3.8-1.24,5.36-2.16
			C878.95,1109.16,883.42,1106,883.03,1103.86z"/>
	</g>
</g>
<g>
	<g>
		<defs>
			<rect id="SVGID_3_" x="-109.95" y="975.32" width="1004.87" height="161.5"/>
		</defs>
		<clipPath id="SVGID_4_">
			<use xlink:href="#SVGID_3_"  style="overflow:visible;"/>
		</clipPath>
		<g class="st1">
			<defs>
				<rect id="SVGID_5_" x="-109.95" y="975.33" width="1004.87" height="161.5"/>
			</defs>
			<clipPath id="SVGID_6_">
				<use xlink:href="#SVGID_5_"  style="overflow:visible;"/>
			</clipPath>
			<path class="st2" d="M56.5,1049.62c16.69,7.09,23.91,15.77,23.91,29.56c0,14.06-10.91,24.97-27.59,24.97
				c-15.64,0-22.34-7.89-25.89-7.89c-2.1,0-2.76,1.32-3.02,4.6l-0.26,3.28h-2.1l-7.88-45.07h1.97c6.18,20.89,15.9,42.31,36.66,42.31
				c14.98,0,21.28-9.2,21.28-18.79c0-11.82-5.39-17.48-20.76-24.05l-10.51-4.47c-14.19-6.04-20.5-14.06-20.5-24.31
				c0-12.48,10.38-21.28,24.31-21.28c10.38,0,16.29,4.86,19.05,4.86c1.18,0,1.97-0.66,2.1-2.23l0.13-3.02h2.1l8.81,30.09h-2.36
				c-8.41-18.66-17.61-27.2-29.83-27.07c-11.56,0.13-17.87,6.96-17.87,15.11c0,8.8,4.6,13.27,17.74,18.92L56.5,1049.62z
				 M93.42,1009.41h58.86l8.81,28.77h-2.37c-8.54-19.71-12.88-26.15-25.09-26.15h-6.18v81.33c0,4.86,1.45,6.97,8.67,7.36l2.63,0.13
				v2.36h-32.06v-2.36l2.63-0.13c7.23-0.39,8.93-2.49,8.93-7.36v-81.33h-6.18c-12.22,0-16.55,6.44-25.1,26.15h-2.36L93.42,1009.41z
				 M214.96,1051.98v0.13h0.27c16.82,0,21.42,10.91,21.42,20.63v30.48h-9.2v-33.9c0-9.07-3.81-15.5-15.77-15.5H185.4v39.55
				c0,4.47,1.18,6.97,8.41,7.36l2.1,0.13v2.36h-30.22v-2.36l2.1-0.13c7.23-0.39,8.41-2.89,8.41-7.36v-74.1
				c0-4.47-1.18-6.96-8.41-7.36l-2.1-0.13v-2.36h41.26c17.08,0,30.22,4.47,30.22,22.2C237.16,1048.96,222.98,1051.59,214.96,1051.98
				 M205.76,1050.93c15.24,0,21.68-4.99,21.68-19.31c0-14.32-6.44-19.31-21.68-19.31H185.4v38.63H205.76z M316.13,1091.4
				c2.76,8.28,5.39,9.2,10.91,9.46v2.36h-28.91v-2.36l2.36-0.13c7.62-0.39,8.41-2.36,6.05-9.59l-7.36-22.21h-31.27l-6.04,17.34
				c-3.68,10.51-2.1,13.93,6.57,14.45l2.23,0.13v2.36h-27.46v-2.36l1.58-0.13c7.49-0.66,9.86-4.07,13.53-14.45l27.07-77.39h2.89
				L316.13,1091.4z M268.83,1066.04h29.3l-14.32-43.23L268.83,1066.04z M361.72,1009.41c26.41,0,43.36,13.8,43.36,46.91
				c0,33.11-16.95,46.9-43.36,46.9h-31.01v-2.36l2.1-0.13c7.23-0.39,8.41-2.89,8.41-7.36v-74.1c0-4.47-1.18-6.96-8.41-7.36
				l-2.1-0.13v-2.36H361.72z M395.36,1056.32c0-30.35-8.8-44.02-34.69-44.02h-10.25v81.07c0,4.86,1.97,7.23,10.25,7.23
				C386.56,1100.6,395.36,1086.67,395.36,1056.32 M418.75,1011.78v-2.36h30.22v2.36l-2.1,0.13c-7.23,0.39-8.41,2.89-8.41,7.36v74.1
				c0,4.47,1.18,6.97,8.41,7.36l2.1,0.13v2.36h-30.22v-2.36l2.1-0.13c7.23-0.39,8.41-2.89,8.41-7.36v-74.1
				c0-4.47-1.19-6.96-8.41-7.36L418.75,1011.78z M534.77,1011.91c-8.02,0.66-10.64,4.07-14.19,14.45l-26.68,77.39h-2.89
				l-27.46-82.52c-2.89-8.8-5.92-9.2-10.91-9.46v-2.36h28.91v2.36l-2.76,0.13c-7.23,0.39-8.01,2.36-5.65,9.59l22.34,68.33
				l21.55-63.46c3.55-10.51,2.76-13.93-5.91-14.45l-2.23-0.13v-2.36h27.46v2.36L534.77,1011.91z M591.01,1091.4
				c2.76,8.28,5.39,9.2,10.91,9.46v2.36h-28.91v-2.36l2.36-0.13c7.62-0.39,8.41-2.36,6.05-9.59l-7.36-22.21h-31.27l-6.04,17.34
				c-3.68,10.51-2.1,13.93,6.57,14.45l2.23,0.13v2.36h-27.46v-2.36l1.58-0.13c7.49-0.66,9.86-4.07,13.53-14.45l27.07-77.39h2.89
				L591.01,1091.4z M543.71,1066.04h29.3l-14.32-43.23L543.71,1066.04z M654.87,1051.98v0.13h0.27c16.82,0,21.42,10.91,21.42,20.63
				v30.48h-9.2v-33.9c0-9.07-3.81-15.5-15.77-15.5H625.3v39.55c0,4.47,1.18,6.97,8.41,7.36l2.1,0.13v2.36h-30.22v-2.36l2.1-0.13
				c7.23-0.39,8.41-2.89,8.41-7.36v-74.1c0-4.47-1.18-6.96-8.41-7.36l-2.1-0.13v-2.36h41.26c17.08,0,30.22,4.47,30.22,22.2
				C677.07,1048.96,662.88,1051.59,654.87,1051.98 M645.67,1050.93c15.24,0,21.68-4.99,21.68-19.31c0-14.32-6.44-19.31-21.68-19.31
				H625.3v38.63H645.67z M695.73,1011.78v-2.36h30.22v2.36l-2.1,0.13c-7.23,0.39-8.41,2.89-8.41,7.36v74.1
				c0,4.47,1.18,6.97,8.41,7.36l2.1,0.13v2.36h-30.22v-2.36l2.1-0.13c7.23-0.39,8.41-2.89,8.41-7.36v-74.1
				c0-4.47-1.18-6.96-8.41-7.36L695.73,1011.78z M810.04,1093.37c0,4.47,1.18,6.97,8.41,7.36l2.1,0.13v2.36h-19.71v-17.74
				l-8.28,6.97c-7.88,6.57-16.82,11.82-26.15,11.82c-11.82,0-17.74-5.65-17.74-21.16v-63.86c0-4.47-1.18-6.96-8.41-7.36l-2.1-0.13
				v-2.36h19.71v75.42c0,10.12,2.36,15.37,11.69,15.37c6.18,0,13.67-3.55,21.42-9.86l9.85-8.01v-63.07c0-4.47-1.18-6.96-8.41-7.36
				l-2.1-0.13v-2.36h19.71V1093.37z M871.01,1049.62c16.69,7.09,23.91,15.77,23.91,29.56c0,14.06-10.91,24.97-27.59,24.97
				c-15.64,0-22.34-7.89-25.89-7.89c-2.1,0-2.76,1.32-3.02,4.6l-0.26,3.28h-2.1l-7.88-45.07h1.97c6.18,20.89,15.9,42.31,36.66,42.31
				c14.98,0,21.29-9.2,21.29-18.79c0-11.82-5.39-17.48-20.76-24.05l-10.51-4.47c-14.19-6.04-20.5-14.06-20.5-24.31
				c0-12.48,10.38-21.28,24.31-21.28c10.38,0,16.29,4.86,19.05,4.86c1.18,0,1.97-0.66,2.1-2.23l0.13-3.02h2.1l8.8,30.09h-2.36
				c-8.41-18.66-17.61-27.2-29.83-27.07c-11.56,0.13-17.87,6.96-17.87,15.11c0,8.8,4.6,13.27,17.74,18.92L871.01,1049.62z"/>
			<path class="st2" d="M-52.06,1012.36c0.23-1.83,0.35-3.73,0.35-5.66c0-14.77-7-26-13.94-30.58c-1.29-0.86-2.64-1.03-3.7-0.46
				c-0.93,0.5-1.49,1.48-1.49,2.63v30.24c-22.33,1.23-39.1,21.69-39.1,47.83c0,26.14,16.77,46.59,39.1,47.82v32.64h4.27v-32.64
				c22.33-1.23,39.1-21.68,39.1-47.82C-27.47,1037.01-37.11,1019.79-52.06,1012.36 M-87.27,1067.56c0,9.84,6.87,17.57,16.42,18.58
				v13.76c-21.73-1.37-34.7-23.1-34.7-43.54c0-20.44,12.97-42.17,34.7-43.54v25.02l-3.51,4.08
				C-84.74,1053.95-87.27,1058.98-87.27,1067.56 M-70.85,1044.24v37.59c-7.08-0.98-12.15-6.88-12.15-14.27
				c0-6.71,1.01-10.42,11.72-22.82L-70.85,1044.24z M-66.57,1086.14c9.55-1,16.42-8.73,16.42-18.58c0-5.19-2.05-10.11-5.77-13.83
				l-0.38-0.38l-3.2,2.84l0.41,0.43c3.22,3.36,4.66,6.73,4.66,10.94c0,7.39-5.07,13.29-12.15,14.27v-42.56l4.16-4.84
				c3.65-4.29,7.61-9.73,9.53-17.6c12.78,7.11,21.01,22.52,21.01,39.51c-0.12,20.54-13.11,42.3-34.7,43.56V1086.14z M-66.57,1008.53
				v-27.66c6.37,5.14,10.58,15.33,10.58,25.83c0,1.35-0.06,2.66-0.17,3.92C-59.49,1009.43-62.99,1008.73-66.57,1008.53
				 M-66.57,1032.86v-20.05c3.37,0.22,6.66,0.95,9.77,2.18c-1.25,5.95-3.95,11.1-8.7,16.62L-66.57,1032.86z"/>
		</g>
	</g>
</g>
<g>
	<g>
		<defs>
			<rect id="SVGID_7_" x="-50.59" y="742.78" width="886.17" height="626.58"/>
		</defs>
		<clipPath id="SVGID_8_">
			<use xlink:href="#SVGID_7_"  style="overflow:visible;"/>
		</clipPath>
		<g class="st3">
			<defs>
				<rect id="SVGID_9_" x="-50.59" y="742.78" width="886.17" height="626.58"/>
			</defs>
			<clipPath id="SVGID_10_">
				<use xlink:href="#SVGID_9_"  style="overflow:visible;"/>
			</clipPath>
			<path class="st4" d="M49.07,1109.23H29.91v-107.04h24.58c26.89,0,40.96,20.18,40.96,40.11c0,19.72-14.38,40.12-38.46,40.12h-7.92
				V1109.23z M49.07,1064.31h7.4c13.3,0,20.26-11.07,20.26-22.01c0-10.66-7.01-22.14-22.39-22.14h-5.27V1064.31z"/>
			<path class="st4" d="M148.23,1111.21c-24.97,0-41.76-17.26-41.76-42.94v-66.07h19.3v65.28c0,16.53,7.97,25.63,22.46,25.63
				c18.45,0,22.32-13.94,22.32-25.63v-65.28h19.29v66.07C189.85,1093.95,173.12,1111.21,148.23,1111.21"/>
			<polygon class="st4" points="254.92,1109.23 202.86,1109.23 202.86,1002.19 222.03,1002.19 222.03,1090.86 254.92,1090.86 			"/>
			<polygon class="st4" points="314.94,1109.23 262.87,1109.23 262.87,1002.19 282.03,1002.19 282.03,1090.86 314.94,1090.86 			"/>
			<path class="st4" d="M459.34,1109.23h-33.17v-107.04h20.21c11.35,0,20.25,0.79,26.79,4.65c9.57,5.66,14.84,14.8,14.84,25.74
				c0,7.39-3.13,14.02-8.75,18.85c10.43,5.17,15.89,14.23,15.89,26.48C495.16,1095.47,479.43,1109.23,459.34,1109.23
				 M445.34,1091.26h10.31c19.94,0,19.94-10.55,19.94-14.01c0-3.43,0-13.88-19.42-13.88h-10.82V1091.26z M445.34,1045.67h7.79
				c7.23,0,15.85-2.25,15.85-12.95c0-5.62-1.74-13.09-16.77-13.09h-6.87V1045.67z"/>
			<polygon class="st4" points="571.05,1109.23 505.39,1109.23 505.39,1002.19 571.05,1002.19 571.05,1020.17 524.56,1020.17 
				524.56,1045.67 568.61,1045.67 568.61,1063.37 524.56,1063.37 524.56,1091.26 571.05,1091.26 			"/>
			<path class="st4" d="M679.97,1109.23h-22l-10.79-27.89h-39.61l-10.81,27.89h-20.62l43.68-107.17h15.04L679.97,1109.23z
				 M614.51,1063.37h25.74c0,0-12.74-32.23-12.83-32.46C627.34,1031.12,614.51,1063.37,614.51,1063.37"/>
			<path class="st4" d="M724.27,1091.28c2.89,5.73,6.11,11.91,9.55,17.95h23.78c-5.24-8.15-10.69-18.21-15.12-27.09
				c-3.18-6.33-5.89-12.1-7.83-16.33c4.78-2.71,9.16-6.4,12.3-11.45c3.11-5.23,4.87-11.51,4.87-18.48
				c0-21.1-15.42-33.69-41.24-33.69h-26.02v107.04h19.17v-36.03c0,0,4.86,0.13,11.48-0.93
				C717.23,1076.73,720.41,1083.58,724.27,1091.28 M703.73,1053.99v-33.82h5.8c15.07,0,22.72,5.42,22.72,16.12
				c0,14.63-11.99,17.7-22.05,17.7H703.73z"/>
			<path class="st4" d="M407.61,1063.56c-0.22,0-0.43,0.01-0.65,0.03C407.18,1063.58,407.39,1063.56,407.61,1063.56"/>
			<path class="st4" d="M395.94,1084.49c0-3.71,0.54-7.19,1.48-10.2c1.9-6.08,5.43-10.29,9.54-10.69c0.22-0.02,0.43-0.03,0.65-0.03
				v-18.07c-13.34,0-24.5,9.23-27.47,21.66l-28.22-30.97l-0.15-0.15c-2.1-2.11-3.11-4.78-3.12-7.52c0.01-2.75,1.02-5.41,3.12-7.52h0
				c2.11-2.1,4.77-3.11,7.52-3.12c2.75,0.01,5.41,1.02,7.52,3.12c0.98,0.99,1.72,2.1,2.23,3.28l16.15-8.13
				c-1.37-2.87-3.24-5.56-5.6-7.93l0,0l0,0c-5.58-5.59-12.98-8.42-20.3-8.41c-7.32-0.01-14.72,2.82-20.3,8.41
				c-5.59,5.58-8.43,12.98-8.42,20.3c-0.01,7.24,2.77,14.56,8.24,20.12l0.07,0.08c-9.96,5.8-16.65,16.59-16.66,28.96
				c0,19.68,15.94,35.62,35.62,35.62v0.02c11.29,0,21.47-4.73,28.68-12.31l7.5,8.23h24.45L395.94,1084.49z M357.86,1095.24v-0.02
				c-9.71-0.02-17.53-7.84-17.55-17.55h0c0-7.14,4.84-13.12,11.41-14.88l22.59,24.79C370.37,1092.25,364.47,1095.23,357.86,1095.24"
				/>
		</g>
	</g>
</g>
<g>
	<g>
		<defs>
			<rect id="SVGID_11_" x="38.03" y="-547.99" width="943.94" height="1335"/>
		</defs>
		<clipPath id="SVGID_12_">
			<use xlink:href="#SVGID_11_"  style="overflow:visible;"/>
		</clipPath>
		<g class="st5">
			<defs>
				<rect id="SVGID_13_" x="38.03" y="-547.99" width="943.94" height="1335"/>
			</defs>
			<clipPath id="SVGID_14_">
				<use xlink:href="#SVGID_13_"  style="overflow:visible;"/>
			</clipPath>
			<path class="st6" d="M621.98,148.33l-0.14-0.34c-2.11-5.12-5.12-9.71-8.95-13.66l-1.32-1.32l-0.14-0.13l25.97-71.36l31.53,86.81
				H621.98z M525.87,115.97V27.65h20.17c26.94,0,41.17,16,41.17,46.29c0,32.21-8.16,42.03-34.92,42.03H525.87z M395.32,148.33
				l31.6-86.81l31.53,86.81H395.32z M722.86,213.35L652.58,19.84l-0.05-0.13h-1.39l-14.47,39.77l-26.35,72.39l-0.06-0.06
				c-9.13-8.06-21.99-13.09-38.24-14.98l-4.95-0.51l4.91-0.6c26.76-4.81,44.74-21.71,44.74-42.07c0-27.92-26.26-47.41-63.88-47.41
				h-78.27v1.39h22.74v144.28L442.09,19.84l-0.05-0.13h-1.39l-14.47,39.77l-55.82,153.37l-0.34,0.04c-0.96,0.12-1.9,0.21-2.83,0.28
				c-1.4,0.11-2.8,0.17-4.2,0.17h-56.4L413.79,27.64l0.81-1.39H283.46v57.45h1.39c0.25-27.98,16.54-56.06,52.55-56.06h43.44
				L272.8,214.74h145.54V159.7h-1.39c-0.19,24.39-14.02,47.57-44.08,52.79l-0.95,0.16h0l22.91-62.94h64.14l23.11,63.63h-22.8v1.39
				h89.49v-1.39h-22.88v-95.98h26.42c26.88,0,42.3,12.01,42.3,32.94v17.03c0,1.88,0.13,4.62,0.27,6.91v0.01l0,0.07l-14.2,39.01
				H562.1v1.39h38.4v-1.39h-18.35l12.93-35.52v0.01c0.03,0.34,0.04,0.55,0.04,0.55l0.36,3.2l0.34,2.12
				c2.16,13.1,7.17,22.73,14.89,28.63l1.11,0.81c5.86,4.08,13.15,6.14,21.67,6.14c11.29,0,18.81-2.81,25.02-9.43l-0.82-0.8
				c-5.7,5.27-10.53,7.42-16.55,7.42c-10.26,0-15.62-12.44-15.62-24.71v-23.86c0-6.26-0.92-12.13-2.74-17.43l-0.26-0.74l-0.01-0.03
				h46.92l23.11,63.63h-22.8v1.39h77.44v-1.39H722.86z"/>
		</g>
	</g>
</g>
<g>
	<path d="M163.7,1108.24c-24.24,0-40.47-17.1-40.47-52.16c0-35.07,16.23-52.16,40.47-52.16c24.25,0,40.48,17.1,40.48,52.16
		C204.18,1091.14,187.95,1108.24,163.7,1108.24L163.7,1108.24z M163.7,1000.23c-34.85,0-58.44,24.46-58.44,55.84
		c0,31.39,23.59,55.84,58.44,55.84c34.85,0,58.44-24.46,58.44-55.84C222.14,1024.69,198.55,1000.23,163.7,1000.23L163.7,1000.23z"/>
	<path d="M305.26,1004.78v2.38c6.71,0.22,9.74,1.51,9.74,6.06c0,3.68-2.6,8.23-14.72,27.49c-6.58,10.32-10.39,18.44-11.53,21
		c-1.44-4.43-5.03-13.3-13.8-27.72c-2.81-4.76-5.2-8.22-7.14-11.25c-4.11-6.28-5.85-9.52-5.85-11.47c0-3.03,1.73-3.46,6.71-4.11
		v-2.38c0,0-9.09,0.22-14.93,0.22c-14.94,0-24.89-0.65-24.89-0.65v2.38c10.6,1.52,16.66,5.85,33.98,33.33
		c11.25,18.61,13.2,25.11,13.42,33.55v3.46c0,11.04,0,18.18-0.86,22.3c-1.08,5.2-4.11,5.41-10.82,6.06v2.38
		c2.6-0.22,10.82-0.87,18.83-0.87c8.23,0,18.83,0.87,18.83,0.87v-2.38c-6.49-0.65-9.74-0.86-10.82-6.06
		c-0.86-4.11-0.86-11.26-0.86-22.3v-4.33c0.43-7.36,3.03-14.07,12.77-29.87c15.15-24.46,21.86-33.98,34.2-36.15v-2.38
		c-2.6,0.22-11.69,0.65-21.21,0.65C309.37,1005,305.26,1004.78,305.26,1004.78L305.26,1004.78z"/>
	<path d="M504.39,1004.34v2.38c6.71,0.65,9.74,0.87,10.82,6.06c0.87,4.11,0.87,11.47,0.87,22.51v16.88h-57.36v-16.88
		c0-11.04,0-18.4,0.87-22.51c1.08-5.2,4.33-5.41,10.82-6.06v-2.38c0,0-10.61,0.65-18.83,0.65c-8.01,0-16.23-0.44-18.83-0.65v2.38
		c6.71,0.65,9.74,0.87,10.82,6.06c0.87,4.11,0.87,11.47,0.87,22.51v41.56c0,11.04,0,18.4-0.87,22.51c-1.08,5.2-4.11,5.41-10.82,6.06
		v2.38c2.6-0.22,10.82-0.65,18.83-0.65c8.23,0,18.83,0.65,18.83,0.65v-2.38c-6.49-0.65-9.74-0.86-10.82-6.06
		c-0.87-4.11-0.87-11.47-0.87-22.51v-20.13h57.36v20.13c0,11.04,0,18.4-0.87,22.51c-1.08,5.2-4.11,5.41-10.82,6.06v2.38
		c2.6-0.22,10.82-0.65,18.83-0.65c8.22,0,18.83,0.65,18.83,0.65v-2.38c-6.49-0.65-9.74-0.86-10.82-6.06
		c-0.87-4.11-0.87-11.47-0.87-22.51v-41.56c0-11.04,0-18.4,0.87-22.51c1.08-5.2,4.33-5.41,10.82-6.06v-2.38
		c0,0-10.61,0.65-18.83,0.65C515.21,1005,506.99,1004.56,504.39,1004.34L504.39,1004.34z"/>
	<path d="M387.95,1050.45l-11.47-7.14c-9.09-5.84-16.02-11.04-16.02-21.64c0-10.82,8.01-17.53,19.92-17.53
		c17.1,0,20.99,13.85,22.51,23.81h1.95c0-1.3,0.44-5.2,0.44-10.61c0-6.71-0.44-10.39-0.44-10.39c-1.3-0.86-9.74-5.84-23.59-5.84
		c-20.13,0-31.16,12.34-31.16,27.27c0,11.04,4.76,21.64,19.91,30.95l11.47,7.14c9.09,5.63,16.88,11.47,16.88,22.3
		c0,13.2-9.09,19.48-21.64,19.48c-16.23,0-23.16-9.96-27.27-28.35h-1.95c-0.22,3.03-0.43,6.28-0.43,11.25
		c0,6.28,0.43,11.69,0.43,11.69c0.65,0.65,10.39,8.44,27.49,8.44c21.64,0,34.2-11.9,34.2-29.87
		C409.15,1068.63,402.66,1059.54,387.95,1050.45L387.95,1050.45z"/>
	<path d="M621.27,1108.24c-24.24,0-40.47-17.1-40.47-52.16c0-35.07,16.23-52.16,40.47-52.16c24.25,0,40.48,17.1,40.48,52.16
		C661.75,1091.14,645.52,1108.24,621.27,1108.24L621.27,1108.24z M621.27,1000.23c-34.85,0-58.44,24.46-58.44,55.84
		c0,31.39,23.59,55.84,58.44,55.84c34.85,0,58.44-24.46,58.44-55.84C679.71,1024.69,656.12,1000.23,621.27,1000.23L621.27,1000.23z"
		/>
</g>
<path class="st7" d="M630.82,1055.1l35.94-54.58h-25.05l-23.17,36.17l-23.18-36.13H570.3l35.94,54.58l-36.93,56.47h25.22
	l23.96-38.08l23.95,38.08h25.22L630.82,1055.1z M563.05,1091.23h-56.42v-25.02h56.42v-20.31h-56.42v-25.07h56.42v-20.26h-76.57v111
	h76.57V1091.23z M477.63,1000.57h-88.28v20.31h34.08v90.69h20.18v-90.74h34.05L477.63,1000.57z M380.53,1000.57h-20.16v111h20.18
	L380.53,1000.57z M352.79,1056.1c-0.01-14.72-5.83-28.83-16.17-39.24s-24.36-16.27-38.99-16.28h-42.88v111h42.88
	c14.63-0.02,28.65-5.87,38.99-16.28c10.34-10.41,16.16-24.52,16.18-39.24V1056.1z M332.62,1056.06c0,4.62-0.9,9.2-2.66,13.48
	c-1.76,4.27-4.34,8.15-7.59,11.42c-3.25,3.27-7.11,5.86-11.36,7.62c-4.25,1.76-8.8,2.67-13.39,2.65h-22.7v-70.4h22.7
	c4.6-0.01,9.15,0.89,13.4,2.66c4.25,1.77,8.11,4.36,11.36,7.63c3.25,3.27,5.83,7.16,7.58,11.44
	C331.73,1046.84,332.63,1051.43,332.62,1056.06z M244.67,1000.57h-20.18v76.94l-56.74-76.94h-20.18v111h20.18v-76.94l56.75,76.94
	h20.18L244.67,1000.57z M137.48,1000.57h-20.17v111h20.18L137.48,1000.57z"/>
<g>
	<path class="st8" d="M97.15,1119.11V991.27h47.1c10.86,0,19.54,3.01,26.03,9.03c6.49,6.02,9.74,13.52,9.74,22.49
		c0,14.64-7.2,24.43-21.6,29.39l0.18,0.35c7.2,1.77,13.1,5.61,17.71,11.51c4.6,5.9,6.91,12.81,6.91,20.72
		c0,22.9-15.46,34.35-46.39,34.35H97.15z M111.32,1058.2v48.87h26.56c20.78,0,31.16-7.67,31.16-23.02c0-8.03-3.01-14.34-9.03-18.95
		c-6.02-4.6-14.11-6.91-24.26-6.91H111.32z M111.32,1003.31v42.85h24.79c9.92,0,17.53-2.3,22.84-6.91c4.6-3.9,6.91-8.85,6.91-14.87
		c0-14.05-8.03-21.07-24.08-21.07H111.32z"/>
	<path class="st8" d="M268.67,1094.32l9.92,5.13c-3.78,6.61-7.79,11.51-12.04,14.7c-6.26,4.49-14.05,6.73-23.37,6.73
		c-11.21,0-20.42-3.78-27.62-11.33c-8.26-8.5-12.39-20.66-12.39-36.47c0-14.76,3.39-26.41,10.18-34.97
		c6.79-8.56,15.91-12.84,27.36-12.84c10.27,0,18.53,3.31,24.79,9.92c6.85,7.32,10.27,17.94,10.27,31.87v8.5H215.9
		c0,10.03,2.63,18.27,7.88,24.7c5.25,6.43,11.72,9.65,19.39,9.65C254.38,1109.9,262.88,1104.71,268.67,1094.32z M216.26,1064.57H263
		c0-8.62-1.95-15.49-5.84-20.63c-3.9-5.13-9.27-7.7-16.11-7.7c-7.55,0-13.43,2.54-17.62,7.61
		C219.24,1048.93,216.85,1055.84,216.26,1064.57z"/>
	<path class="st8" d="M296.99,1119.11v-92.07h12.75v18.24h0.35c3.78-6.73,7.73-11.57,11.86-14.52c4.84-3.42,10.86-5.13,18.06-5.13
		v12.75c-7.67,0.12-13.93,2.77-18.77,7.97c-4.49,4.6-8.32,11.86-11.51,21.78v50.99H296.99z"/>
	<path class="st8" d="M347.87,1103.35l10.09-7.61c6.61,9.44,15.4,14.16,26.38,14.16c6.49,0,11.51-1.59,15.05-4.78
		c3.19-2.71,4.78-6.2,4.78-10.45c0-6.26-4.72-11.1-14.16-14.52c-8.62-2.95-17.23-5.9-25.85-8.85c-9.33-4.6-13.81-11.69-13.46-21.25
		c0.24-7.91,3.13-14.05,8.68-18.41c5.55-4.37,12.81-6.49,21.78-6.37c6.02,0.12,12.01,1.68,17.97,4.69
		c5.96,3.01,10.48,6.82,13.54,11.42l-8.85,7.79c-7.08-8.62-14.99-12.93-23.73-12.93c-11.1,0-16.64,4.54-16.64,13.63
		c0,5.31,4.6,9.56,13.81,12.75c16.17,5.43,24.79,8.44,25.85,9.03c9.21,5.08,13.81,12.51,13.81,22.31c0,8.5-3.31,15.23-9.92,20.18
		c-5.9,4.49-13.34,6.73-22.31,6.73C368.88,1120.88,356.6,1115.03,347.87,1103.35z"/>
	<path class="st8" d="M438.07,991.27h12.75v48.16h0.35c8.38-9.44,17.47-14.16,27.27-14.16c7.55,0,13.69,2.01,18.41,6.02
		c5.43,4.72,8.14,11.69,8.14,20.89v66.93h-12.75v-66.57c0-10.86-5.02-16.29-15.05-16.29c-8.85,0-17.65,4.66-26.38,13.99v68.88
		h-12.75V991.27z"/>
	<polygon class="st8" points="535.55,1119.11 535.55,991.27 548.3,991.27 548.3,1073.6 585.73,1027.04 601.24,1027.04 
		574.15,1061.03 604.78,1119.11 589.73,1119.11 565.3,1072.01 548.3,1091.49 548.3,1119.11 	"/>
	<path class="st8" d="M630.45,1050.58l-11.15-5.84c7.2-12.98,18.71-19.48,34.53-19.48c8.85,0,16.11,2.07,21.78,6.2
		c6.73,4.96,10.09,12.1,10.09,21.42v46.39c0,7.79,0.71,14.4,2.12,19.83h-13.1l-1.42-12.75c-8.73,9.68-18.89,14.52-30.45,14.52
		c-7.44,0-13.57-2.12-18.41-6.37c-5.19-4.6-7.79-10.92-7.79-18.95c0-10.03,4.25-17.88,12.75-23.55c8.5-5.67,23.02-10.33,43.56-13.99
		v-4.96c0-11.21-6.32-16.82-18.95-16.82C642.08,1036.24,634.23,1041.02,630.45,1050.58z M672.95,1094.67v-25.32
		c-29.04,5.08-43.56,13.87-43.56,26.38c0,4.01,1.59,7.38,4.78,10.09c3.19,2.71,6.67,4.07,10.45,4.07c4.49,0,9.38-1.45,14.7-4.34
		C664.63,1102.67,669.17,1099.04,672.95,1094.67z"/>
</g>
<g>
	<defs>
		<rect id="SVGID_15_" x="1101.96" y="45.11" width="784.17" height="148.8"/>
	</defs>
	<clipPath id="SVGID_16_">
		<use xlink:href="#SVGID_15_"  style="overflow:visible;"/>
	</clipPath>
	<g class="st9">
		<path class="st7" d="M1437.9,188.58v0.25h-21.31v-58.58L1437.9,188.58z"/>
		<path class="st7" d="M1437.99,188.83l-0.1-0.25l-21.31-58.32l-31.07-85.05l-0.04-0.1h-1.04l-10.8,29.52l-19.67,53.73l-0.06-0.04
			c-6.81-5.97-16.41-9.72-28.55-11.11l-3.7-0.38l3.67-0.45c19.98-3.57,33.4-16.11,33.4-31.23c0-20.73-19.61-35.19-47.69-35.19
			h-58.43V51h16.99v107.08L1228.35,45.2l-0.04-0.1h-1.04l-10.8,29.52l-41.68,113.84l-0.26,0.02c-0.72,0.1-1.42,0.16-2.12,0.21
			c-1.05,0.08-2.1,0.12-3.14,0.12h-42.11l80.04-137.84l0.6-1.03h-97.9V92.6h1.04c0.19-20.77,12.36-41.61,39.24-41.61h32.42
			l-80.65,138.87h108.65v-40.85h-1.04c-0.14,18.11-10.45,35.31-32.92,39.19l-0.71,0.12l17.1-46.72h47.88l17.26,47.24h-17.03v1.03
			h66.82v-1.03h-17.08v-71.25h19.73c20.07,0,31.58,8.92,31.58,24.45v12.64c0,1.38,0.1,3.43,0.21,5.12v0.07l-10.59,28.95h-13.87v1.03
			h28.67v-1.03h-13.7l9.66-26.36c0.02,0.25,0.02,0.42,0.02,0.42l0.27,2.37l0.25,1.57c1.62,9.72,5.36,16.87,11.13,21.25l0.81,0.6
			c4.39,3.02,9.83,4.56,16.18,4.56c8.43,0,14.04-2.09,18.69-7l-0.62-0.6c-4.26,3.9-7.87,5.5-12.36,5.5
			c-7.66,0-11.67-9.23-11.67-18.34v-17.7c0-4.65-0.68-9-2.04-12.95l-0.19-0.54v-0.02h35.02l17.26,47.24h-17.03v1.03h57.82v-1.03
			L1437.99,188.83L1437.99,188.83z M1193.43,140.57l23.59-64.43l23.55,64.43H1193.43L1193.43,140.57z M1290.91,116.55V51.01h15.05
			c20.11,0,30.74,11.87,30.74,34.36c0,23.89-6.09,31.18-26.07,31.18H1290.91z M1362.67,140.57l-0.11-0.25
			c-1.56-3.8-3.82-7.2-6.67-10.14l-0.98-0.97l-0.11-0.1l19.39-52.97l23.55,64.43H1362.67L1362.67,140.57z"/>
		<path class="st7" d="M1581.94,46.87c-31.34,0-56.95,24.45-63.31,57.25V50.99h18.27v-1.04h-57.83v1.04h18.27v65.56h-59.45V50.99
			h18.27v-1.04h-57.82v1.04h18.24v79.26l21.31,58.33v-70.99h59.45v71.24h-18.27v1.04h57.83v-1.04h-18.27v-52.91
			c6.35,32.8,31.97,57.23,63.31,57.23c36.26,0,64.83-32.65,64.83-73.14S1618.19,46.87,1581.94,46.87z M1607.32,184.05
			c-6.82,5.93-14.92,8.06-25.39,8.06c-10.46,0-18.54-2.13-25.37-8.06c-10.87-9.33-16.62-29.27-16.62-64.05s5.75-54.72,16.62-64.05
			c6.83-5.95,14.92-8.06,25.37-8.06s18.57,2.11,25.39,8.06c10.68,9.33,16.64,29.29,16.64,64.05S1618,174.72,1607.32,184.05z"/>
		<path class="st7" d="M1885.1,149.41c0,21.62-12.8,39.43-44.79,39.43h-25.49v-70.61h10.45c16.21,0,25.38,9.33,25.38,22.67h1.04
			V94.08h-1.04c0,13.79-9.16,23.11-25.38,23.11h-10.45v-66.2h26.22c24.95,0,34.97,16.54,34.97,35.19h1.04V49.96h-126.52
			l-37.3,109.68l-41.11-109.68h-42.06v1.03h18.36v137.84h-19.62v1.03h40.28v-1.03h-19.62V51.01l52.67,142.89h0.64l47.56-140.16
			v135.09h-18.78v1.03h154.58v-40.46H1885.1z M1793.27,188.83h-21.62V50.99h21.62V188.83z"/>
	</g>
</g>
</svg>
